<svg xmlns="http://www.w3.org/2000/svg" width="32" height="32" viewBox="0 0 32 32"><rect width="100%" height="100%" fill="#1e293b"/><path fill="#94a3b8" d="m19.71 11.305-.54 1.02q-.1.16-.2.24-.11.08-.27.08-.17 0-.37-.13-.19-.12-.46-.27-.28-.16-.64-.28t-.86-.12q-.45 0-.78.1-.34.11-.57.3-.23.2-.34.46-.11.27-.11.59 0 .41.23.68t.6.47q.38.19.86.34t.98.32q.51.18.99.4.48.23.85.58.38.35.61.85.22.51.22 1.23 0 .78-.26 1.46-.27.69-.79 1.2-.51.5-1.26.8-.74.29-1.7.29-.55 0-1.09-.11t-1.03-.31-.92-.48-.77-.62l.63-1.03q.08-.12.21-.19.13-.08.27-.08.2 0 .43.17.24.16.56.36t.74.36q.43.17 1.03.17.92 0 1.43-.44.5-.43.5-1.25 0-.46-.23-.74-.23-.29-.6-.49-.38-.19-.86-.33t-.97-.3q-.5-.16-.98-.38t-.86-.58q-.37-.36-.6-.9t-.23-1.34q0-.63.25-1.23.26-.6.74-1.06.48-.47 1.18-.75t1.62-.28q1.02 0 1.88.32.87.32 1.48.9"/></svg>