<svg xmlns="http://www.w3.org/2000/svg" width="32" height="32" viewBox="0 0 32 32"><rect width="100%" height="100%" fill="#fecaca"/><path fill="#991b1b" d="M17.275 15.985h3.84v4.68q-.88.65-1.88.95t-2.13.3q-1.42 0-2.57-.44-1.14-.44-1.96-1.23-.81-.78-1.25-1.87t-.44-2.37q0-1.31.43-2.4.42-1.08 1.2-1.87.78-.78 1.89-1.21 1.11-.44 2.5-.44.7 0 1.31.12.62.11 1.14.3.52.2.96.48.43.28.79.62l-.62.97q-.14.23-.37.29-.24.05-.51-.12-.26-.15-.53-.3-.26-.16-.58-.27-.33-.11-.73-.18-.41-.07-.93-.07-.86 0-1.55.28-.69.29-1.18.83-.49.53-.75 1.29-.27.75-.27 1.68 0 .99.29 1.77.28.78.8 1.32.51.54 1.24.82.73.29 1.62.29.64 0 1.15-.14.5-.14.98-.37v-2.09h-1.45q-.21 0-.33-.12-.11-.12-.11-.28z"/></svg>