<svg xmlns="http://www.w3.org/2000/svg" width="32" height="32" viewBox="0 0 32 32"><rect width="100%" height="100%" fill="#bbf7d0"/><path fill="#15803d" d="M19.73 19.055q.18 0 .31.14l.85.92q-.7.87-1.73 1.33-1.03.47-2.47.47-1.29 0-2.32-.44-1.02-.44-1.75-1.23-.73-.78-1.12-1.87t-.39-2.37q0-1.31.42-2.39.42-1.09 1.17-1.87.76-.78 1.81-1.22 1.04-.44 2.32-.44 1.26 0 2.24.42t1.67 1.09l-.72 1q-.07.09-.17.17-.1.07-.27.07-.12 0-.25-.07t-.28-.17-.35-.22-.47-.22q-.26-.1-.61-.17-.35-.06-.8-.06-.78 0-1.42.27-.65.28-1.11.8-.46.53-.72 1.28-.26.76-.26 1.73t.28 1.73.75 1.28 1.11.8q.64.27 1.38.27.44 0 .79-.04.36-.05.66-.16.3-.1.57-.26.26-.17.53-.41.08-.07.17-.11.08-.05.18-.05"/></svg>